<svg xmlns:dc="http://purl.org/dc/elements/1.1/" xmlns:cc="http://creativecommons.org/ns#" xmlns:rdf="http://www.w3.org/1999/02/22-rdf-syntax-ns#" xmlns:svg="http://www.w3.org/2000/svg" xmlns="http://www.w3.org/2000/svg" xmlns:sodipodi="http://sodipodi.sourceforge.net/DTD/sodipodi-0.dtd" xmlns:inkscape="http://www.inkscape.org/namespaces/inkscape" viewBox="0 0 32 40" version="1.1" x="0px" y="0px"><g transform="translate(0,-1020.3622)"><path style="color:#000000;font-style:normal;font-variant:normal;font-weight:normal;font-stretch:normal;font-size:medium;line-height:normal;font-family:sans-serif;text-indent:0;text-align:start;text-decoration:none;text-decoration-line:none;text-decoration-style:solid;text-decoration-color:#000000;letter-spacing:normal;word-spacing:normal;text-transform:none;direction:ltr;block-progression:tb;writing-mode:lr-tb;baseline-shift:baseline;text-anchor:start;white-space:normal;clip-rule:nonzero;display:inline;overflow:visible;visibility:visible;opacity:1;isolation:auto;mix-blend-mode:normal;color-interpolation:sRGB;color-interpolation-filters:linearRGB;solid-color:#000000;solid-opacity:1;fill:#000000;fill-opacity:1;fill-rule:nonzero;stroke:none;stroke-width:1;stroke-linecap:butt;stroke-linejoin:round;stroke-miterlimit:4;stroke-dasharray:none;stroke-dashoffset:0;stroke-opacity:1;color-rendering:auto;image-rendering:auto;shape-rendering:auto;text-rendering:auto;enable-background:accumulate" d="M 16 1 C 7.7216511 1 1 7.7217 1 16 C 1 24.2784 7.7216511 31 16 31 C 24.278349 31 31 24.2784 31 16 C 31 7.7217 24.278349 1 16 1 z M 16 2 C 23.737909 2 30 8.2621 30 16 C 30 23.7379 23.737909 30 16 30 C 8.2620912 30 2 23.7379 2 16 C 2 8.2621 8.2620912 2 16 2 z M 15.974609 3.0996094 L 15.556641 3.1230469 L 15.607422 4.1210938 L 16 4.0996094 L 16.556641 4.1269531 L 16.605469 3.1289062 L 16.025391 3.0996094 L 15.974609 3.0996094 z M 14.509766 3.1933594 L 13.521484 3.34375 L 13.671875 4.3320312 L 14.660156 4.1816406 L 14.509766 3.1933594 z M 17.652344 3.2148438 L 17.501953 4.2070312 L 18.400391 4.34375 L 18.439453 4.3535156 L 18.6875 3.3847656 L 18.623047 3.3691406 L 18.574219 3.3574219 L 17.652344 3.2148438 z M 12.501953 3.59375 L 12.1875 3.6738281 L 12.140625 3.6894531 L 11.505859 3.921875 L 11.849609 4.8613281 L 12.453125 4.6386719 L 12.75 4.5625 L 12.501953 3.59375 z M 19.65625 3.6328125 L 19.408203 4.6035156 L 19.548828 4.6367188 L 20.304688 4.9140625 L 20.648438 3.9746094 L 19.859375 3.6875 L 19.8125 3.671875 L 19.65625 3.6328125 z M 10.539062 4.3242188 L 9.8730469 4.6464844 L 9.8300781 4.6679688 L 9.6074219 4.8027344 L 10.126953 5.6582031 L 10.328125 5.5371094 L 10.972656 5.2246094 L 10.539062 4.3242188 z M 21.607422 4.3964844 L 21.173828 5.296875 L 21.671875 5.5390625 L 22.013672 5.7441406 L 22.53125 4.890625 L 22.169922 4.6699219 L 22.126953 4.6464844 L 21.607422 4.3964844 z M 8.7167969 5.3554688 L 7.9160156 5.9550781 L 8.5136719 6.7558594 L 9.3144531 6.1582031 L 8.7167969 5.3554688 z M 23.414062 5.4589844 L 22.816406 6.2558594 L 23.550781 6.8027344 L 23.564453 6.8144531 L 23.578125 6.8261719 L 23.587891 6.8359375 L 23.658203 6.7421875 L 24.25 6.0898438 L 24.224609 6.0664062 L 24.1875 6.0351562 L 23.414062 5.4589844 z M 7.1308594 6.6445312 L 6.8964844 6.8632812 L 6.8613281 6.8945312 L 6.4023438 7.3984375 L 7.1425781 8.0722656 L 7.5683594 7.6015625 L 7.5761719 7.5917969 L 7.8027344 7.3847656 L 7.1308594 6.6445312 z M 24.990234 6.7597656 L 24.316406 7.4980469 L 24.423828 7.5957031 L 24.431641 7.6054688 L 24.966797 8.1972656 L 25.707031 7.5234375 L 25.138672 6.8984375 L 25.103516 6.8652344 L 24.990234 6.7597656 z M 5.7363281 8.2070312 L 5.3164062 8.7675781 L 5.2910156 8.8085938 L 5.1347656 9.0644531 L 5.9902344 9.5839844 L 6.1367188 9.3417969 L 6.5371094 8.8066406 L 5.7363281 8.2070312 z M 26.361328 8.3378906 L 25.560547 8.9375 L 25.863281 9.3417969 L 26.095703 9.7226562 L 26.951172 9.2050781 L 26.708984 8.8085938 L 26.683594 8.7675781 L 26.361328 8.3378906 z M 22.357422 9.1367188 A 0.50005 0.50005 0 0 0 22.009766 9.2832031 L 13.878906 17.416016 L 9.9902344 13.525391 A 0.50005 0.50005 0 0 0 9.2832031 13.525391 L 7.1621094 15.646484 A 0.50005 0.50005 0 0 0 7.1621094 16.353516 L 11.404297 20.597656 L 13.525391 22.71875 A 0.50005 0.50005 0 0 0 14.232422 22.71875 L 16.353516 20.597656 L 24.837891 12.111328 A 0.50005 0.50005 0 0 0 24.837891 11.404297 L 22.716797 9.2832031 A 0.50005 0.50005 0 0 0 22.357422 9.1367188 z M 4.6015625 9.9667969 L 4.1679688 10.867188 L 5.0683594 11.300781 L 5.5019531 10.400391 L 4.6015625 9.9667969 z M 27.470703 10.111328 L 26.568359 10.548828 L 26.962891 11.369141 L 26.978516 11.40625 L 27.917969 11.060547 L 27.894531 11 L 27.876953 10.955078 L 27.470703 10.111328 z M 22.363281 10.34375 L 23.777344 11.757812 L 15.646484 19.890625 L 13.878906 21.658203 L 12.111328 19.890625 L 8.2226562 16 L 9.6367188 14.585938 L 13.525391 18.476562 A 0.50005 0.50005 0 0 0 14.232422 18.476562 L 22.363281 10.34375 z M 3.7949219 11.847656 L 3.6875 12.142578 L 3.6738281 12.189453 L 3.5019531 12.855469 L 4.4707031 13.103516 L 4.6386719 12.451172 L 4.734375 12.191406 L 3.7949219 11.847656 z M 28.261719 12.001953 L 27.322266 12.345703 L 27.361328 12.451172 L 27.570312 13.261719 L 28.539062 13.013672 L 28.326172 12.189453 L 28.3125 12.140625 L 28.261719 12.001953 z M 3.2890625 13.880859 L 3.1699219 14.658203 L 3.1640625 14.707031 L 3.1542969 14.921875 L 4.1523438 14.972656 L 4.1621094 14.777344 L 4.2773438 14.033203 L 3.2890625 13.880859 z M 28.736328 14.041016 L 27.748047 14.193359 L 27.835938 14.777344 L 27.855469 15.136719 L 28.853516 15.083984 L 28.835938 14.705078 L 28.830078 14.65625 L 28.736328 14.041016 z M 3.1035156 15.921875 L 3.1015625 15.976562 L 3.1015625 16.025391 L 3.1484375 16.970703 L 4.1464844 16.919922 L 4.1015625 15.998047 L 4.1015625 15.972656 L 3.1035156 15.921875 z M 27.900391 15.976562 L 27.849609 16.974609 L 28.849609 17.025391 L 28.898438 16.025391 L 27.900391 15.976562 z M 4.2597656 17.861328 L 3.2714844 18.011719 L 3.3574219 18.576172 L 3.3671875 18.625 L 3.4746094 19.041016 L 4.4433594 18.792969 L 4.3417969 18.396484 L 4.2597656 17.861328 z M 27.732422 17.914062 L 27.658203 18.396484 L 27.542969 18.845703 L 28.511719 19.09375 L 28.632812 18.625 L 28.642578 18.574219 L 28.720703 18.064453 L 27.732422 17.914062 z M 4.6972656 19.707031 L 3.7578125 20.050781 L 4.1015625 20.990234 L 5.0410156 20.646484 L 4.6972656 19.707031 z M 27.285156 19.761719 L 26.962891 20.634766 L 26.955078 20.650391 L 26.957031 20.650391 L 26.955078 20.660156 L 27.005859 20.677734 L 27.857422 21.089844 L 27.876953 21.048828 L 27.894531 21.003906 L 28.222656 20.105469 L 27.285156 19.761719 z M 5.4550781 21.501953 L 4.5546875 21.9375 L 4.6464844 22.128906 L 4.6699219 22.171875 L 5.078125 22.84375 L 5.9335938 22.324219 L 5.5371094 21.673828 L 5.4550781 21.501953 z M 26.521484 21.552734 L 26.462891 21.673828 L 26.039062 22.371094 L 26.894531 22.890625 L 27.330078 22.171875 L 27.353516 22.128906 L 27.421875 21.986328 L 26.521484 21.552734 z M 6.4726562 23.107422 L 5.671875 23.707031 L 6.03125 24.1875 L 6.0625 24.222656 L 6.3300781 24.519531 L 7.0703125 23.847656 L 6.8203125 23.572266 L 6.4726562 23.107422 z M 25.496094 23.150391 L 25.179688 23.574219 L 24.892578 23.888672 L 25.632812 24.560547 L 25.9375 24.224609 L 25.96875 24.1875 L 26.296875 23.75 L 25.496094 23.150391 z M 7.7226562 24.537109 L 7.0507812 25.279297 L 7.7753906 25.939453 L 7.8125 25.96875 L 7.828125 25.980469 L 8.2460938 25.423828 L 8.4492188 25.199219 L 8.4277344 25.177734 L 7.7226562 24.537109 z M 24.236328 24.574219 L 23.570312 25.179688 L 23.529297 25.210938 L 24.128906 26.011719 L 24.1875 25.96875 L 24.224609 25.9375 L 24.910156 25.314453 L 24.236328 24.574219 z M 9.2285156 25.777344 L 8.6289062 26.578125 L 8.7675781 26.681641 L 8.8066406 26.708984 L 9.5136719 27.138672 L 10.033203 26.283203 L 9.3496094 25.867188 L 9.2285156 25.777344 z M 22.728516 25.8125 L 22.652344 25.867188 L 21.919922 26.3125 L 22.439453 27.166016 L 23.193359 26.708984 L 23.232422 26.683594 L 23.326172 26.613281 L 22.728516 25.8125 z M 10.875 26.728516 L 10.441406 27.626953 L 10.957031 27.875 L 11.001953 27.896484 L 11.402344 28.042969 L 11.746094 27.103516 L 11.363281 26.962891 L 10.875 26.728516 z M 21.076172 26.75 L 20.636719 26.960938 L 20.201172 27.121094 L 20.544922 28.060547 L 20.998047 27.894531 L 21.042969 27.875 L 21.509766 27.650391 L 21.076172 26.75 z M 12.644531 27.410156 L 12.396484 28.378906 L 13.365234 28.628906 L 13.613281 27.660156 L 12.644531 27.410156 z M 19.302734 27.416016 L 18.400391 27.65625 L 18.382812 27.65625 L 18.375 27.65625 L 18.394531 27.736328 L 18.533203 28.642578 L 18.574219 28.632812 L 18.623047 28.623047 L 19.550781 28.384766 L 19.302734 27.416016 z M 14.552734 27.796875 L 14.402344 28.791016 L 14.65625 28.830078 L 14.707031 28.830078 L 15.447266 28.867188 L 15.498047 27.869141 L 14.792969 27.833984 L 14.552734 27.796875 z M 17.392578 27.814453 L 17.208984 27.837891 L 16.447266 27.875 L 16.498047 28.875 L 17.292969 28.833984 L 17.34375 28.833984 L 17.544922 28.802734 L 17.392578 27.814453 z " transform="translate(0,1020.3622)"/></g><text x="0" y="47" fill="#000000" font-size="5px" font-weight="bold" font-family="'Helvetica Neue', Helvetica, Arial-Unicode, Arial, Sans-serif">Created by Dev Patel</text><text x="0" y="52" fill="#000000" font-size="5px" font-weight="bold" font-family="'Helvetica Neue', Helvetica, Arial-Unicode, Arial, Sans-serif">from the Noun Project</text></svg>