<svg xmlns:dc="http://purl.org/dc/elements/1.1/" xmlns:cc="http://creativecommons.org/ns#" xmlns:rdf="http://www.w3.org/1999/02/22-rdf-syntax-ns#" xmlns:svg="http://www.w3.org/2000/svg" xmlns="http://www.w3.org/2000/svg" xmlns:sodipodi="http://sodipodi.sourceforge.net/DTD/sodipodi-0.dtd" xmlns:inkscape="http://www.inkscape.org/namespaces/inkscape" viewBox="0 0 32 40" version="1.1" x="0px" y="0px">
    <g transform="translate(0,-1020.3622)">
        <path style="color:#000000;font-style:normal;font-variant:normal;font-weight:normal;font-stretch:normal;font-size:medium;line-height:normal;font-family:sans-serif;text-indent:0;text-align:start;text-decoration:none;text-decoration-line:none;text-decoration-style:solid;text-decoration-color:#000000;letter-spacing:normal;word-spacing:normal;text-transform:none;direction:ltr;block-progression:tb;writing-mode:lr-tb;baseline-shift:baseline;text-anchor:start;white-space:normal;clip-rule:nonzero;display:inline;overflow:visible;visibility:visible;opacity:1;isolation:auto;mix-blend-mode:normal;color-interpolation:sRGB;color-interpolation-filters:linearRGB;solid-color:#000000;solid-opacity:1;fill:#000000;fill-opacity:1;fill-rule:nonzero;stroke:none;stroke-width:0.99999994;stroke-linecap:round;stroke-linejoin:miter;stroke-miterlimit:4;stroke-dasharray:none;stroke-dashoffset:0;stroke-opacity:1;color-rendering:auto;image-rendering:auto;shape-rendering:auto;text-rendering:auto;enable-background:accumulate" d="m 12.931641,4.0039062 c -2.694119,0 -4.8487494,2.1443499 -5.0332035,4.8183594 C 7.3555206,8.9552025 6.8419337,9.1663587 6.3828125,9.4589844 5,10.257352 4.029049,12 3.9960938,13.832031 c 0.00107,2.8411 2.2870504,5.16211 5.1015624,5.16211 l 3.4023438,0 0,3.003906 c 0,0.5626 -0.437339,1 -1,1 l -0.572266,0 c -0.224623,-0.858369 -1.0022583,-1.5 -1.927734,-1.5 -1.0986456,0 -2,0.9013 -2,2 0,1.0986 0.9013544,2 2,2 0.924824,0 1.70248,-0.642581 1.927734,-1.5 l 0.572266,0 c 1.099357,0 2,-0.9007 2,-2 l 0,-9 -1,0 0,4.996094 -3.4023438,0 c -2.2674479,0 -4.1015626,-1.855263 -4.1015624,-4.164063 -3.034e-4,-1.500706 0.7875019,-2.82889 1.9882812,-3.5625 0.066957,-0.04103 0.1377001,-0.07611 0.2070312,-0.113281 0.1293538,-0.06904 0.2609399,-0.132363 0.3984376,-0.1875001 0.069422,-0.027984 0.139713,-0.053954 0.2109374,-0.078125 0.1668598,-0.056345 0.3392338,-0.101901 0.515625,-0.1367188 0.2537155,-0.049826 0.5124769,-0.083984 0.78125,-0.083984 1.1871258,0 2.2518008,0.5073182 3.0019528,1.3242192 0.448676,0.526286 1.222279,-0.183705 0.736329,-0.675782 -0.930107,-1.0128997 -2.264352,-1.6484372 -3.7382818,-1.6484372 -0.07415,0 -0.1453269,0.012439 -0.21875,0.015625 0.2378302,-2.0755169 1.9483208,-3.6796876 4.0527348,-3.6796876 1.967832,10e-4 3.656666,1.4128594 4.027343,3.3808594 0.06439,0.3451033 0.455039,0.5181609 0.753907,0.3339844 0.640751,-0.3954 1.373615,-0.6054688 2.121093,-0.6054688 2.267461,0 4.101563,1.8533094 4.101563,4.1621098 2.8e-5,0.276131 0.223869,0.499972 0.5,0.5 1.420345,0 2.568353,1.158975 2.568359,2.609375 -6e-6,1.4504 -1.148014,2.609375 -2.568359,2.609375 l -4.935547,0 0,-4.996094 -1,0 0,9 c 0,1.0993 0.900643,2 2,2 l 0.572266,0 c 0.225254,0.857419 1.00291,1.5 1.927734,1.5 1.098646,0 2,-0.9014 2,-2 0,-1.0987 -0.901354,-2 -2,-2 -0.925476,0 -1.703111,0.641631 -1.927734,1.5 l -0.572266,0 c -0.562661,0 -1,-0.4374 -1,-1 l 0,-3.003906 4.935547,0 c 1.968057,0 3.568351,-1.625775 3.568359,-3.609375 -7e-6,-1.8344 -1.388161,-3.303938 -3.15039,-3.523438 -0.219301,-2.6399999 -2.349613,-4.7480468 -5.019532,-4.7480468 -0.734222,0 -1.41615,0.2841969 -2.078125,0.5917969 -0.642007,-2.1526 -2.557157,-3.6999719 -4.824218,-3.7011719 z M 14.5,10.998047 l 0,9 1,0 0,-9 z m 2,0 0,9 1,0 0,-9 z m -2,10 0,1 1,0 0,-1 z m 2,0 0,1 1,0 0,-1 z m -7.5,1.5 c 0.5582086,0 1,0.4418 1,1 0,0.5582 -0.4417914,1 -1,1 -0.5582086,0 -1,-0.4418 -1,-1 0,-0.5582 0.4417914,-1 1,-1 z m 14,0 c 0.558209,0 1,0.4418 1,1 0,0.5582 -0.441791,1 -1,1 -0.558209,0 -1,-0.4418 -1,-1 0,-0.5582 0.441791,-1 1,-1 z m -22,0.5 0,1 1,0 0,-1 z m 2,0 0,1 1,0 0,-1 z m 2,0 0,1 1,0 0,-1 z m 9.5,0 0,1 1,0 0,-1 z m 2,0 0,1 1,0 0,-1 z m 9.5,0 0,1 1,0 0,-1 z m 2,0 0,1 1,0 0,-1 z m 2,0 0,1 1,0 0,-1 z m -15.5,2 0,1 1,0 0,-1 z m 2,0 0,1 1,0 0,-1 z m -2,2 0,1 1,0 0,-1 z m 2,0 0,1 1,0 0,-1 z" transform="translate(0,1020.3622)" />
    </g>
</svg>